<?xml version="1.0" standalone="no"?>
<!DOCTYPE svg PUBLIC "-//W3C//DTD SVG 20010904//EN"
 "http://www.w3.org/TR/2001/REC-SVG-20010904/DTD/svg10.dtd">
<svg version="1.0" xmlns="http://www.w3.org/2000/svg"
 width="700.000000pt" height="700.000000pt" viewBox="0 0 700.000000 700.000000"
 preserveAspectRatio="xMidYMid meet">
<metadata>
Created by potrace 1.11, written by Peter Selinger 2001-2013
</metadata>
<g transform="translate(0.000000,700.000000) scale(0.100000,-0.100000)"
fill="#000000" stroke="none">
<path d="M800 5840 c0 -280 3 -510 7 -510 3 0 35 11 70 25 121 49 210 66 368
72 117 4 170 2 240 -11 176 -33 367 -113 530 -222 280 -187 629 -589 859 -991
112 -195 185 -208 471 -78 93 42 222 92 285 110 63 19 158 47 210 63 127 39
179 49 351 66 81 8 156 19 168 25 51 28 15 96 -124 241 -222 231 -350 423
-456 688 -85 211 -114 351 -114 552 0 173 16 265 66 384 16 37 29 74 29 82 0
12 -220 14 -1480 14 l-1480 0 0 -510z"/>
<path d="M5255 6008 c-181 -10 -288 -39 -439 -116 -217 -111 -310 -276 -277
-493 26 -162 123 -392 220 -521 65 -85 197 -209 279 -262 169 -109 293 -151
532 -181 134 -16 568 -23 603 -9 16 6 17 57 17 603 l0 596 -68 78 c-197 228
-482 328 -867 305z m265 -170 c165 -35 260 -89 413 -237 154 -148 166 -261 31
-277 -37 -5 -43 -1 -124 72 -108 97 -179 145 -296 201 -136 64 -236 87 -343
78 -141 -11 -159 -10 -179 8 -22 20 -35 68 -25 92 7 19 62 49 123 65 116 33
239 32 400 -2z"/>
<path d="M1395 4624 c-11 -2 -45 -9 -75 -15 -65 -13 -180 -64 -245 -109 -78
-54 -182 -158 -230 -231 l-45 -68 0 -150 0 -149 59 -105 c111 -201 239 -352
401 -473 102 -77 285 -171 359 -184 71 -13 175 -13 262 1 64 10 73 9 91 -8 20
-17 20 -25 15 -184 -6 -196 -23 -269 -74 -328 -25 -29 -48 -45 -85 -56 -97
-28 -164 -17 -313 55 -185 90 -426 297 -620 533 -44 53 -83 97 -87 97 -5 0 -7
-582 -6 -1292 l3 -1293 2015 -3 2015 -2 100 47 c350 166 535 277 750 449 136
110 316 287 424 418 l81 99 0 269 c0 147 -3 268 -6 268 -3 0 -60 -54 -127
-119 -151 -147 -274 -255 -487 -426 -869 -697 -1526 -984 -2060 -900 -145 23
-308 79 -470 163 -228 118 -251 128 -340 158 -83 27 -93 28 -375 34 -159 4
-304 12 -320 17 -109 37 -189 111 -246 229 -104 214 -108 461 -12 694 40 97
58 129 164 295 107 168 123 198 257 480 83 176 153 306 236 439 165 263 181
299 181 406 0 75 -5 98 -39 189 -51 136 -116 231 -229 336 -128 120 -249 204
-409 284 -219 111 -398 157 -513 135z m307 -283 c128 -58 148 -73 341 -255
155 -146 201 -207 213 -282 8 -56 -2 -82 -39 -105 -67 -40 -82 -32 -220 114
-69 73 -149 152 -179 174 -77 60 -170 103 -260 121 l-79 15 -44 60 c-28 37
-45 69 -45 87 0 59 80 119 160 119 33 1 73 -12 152 -48z"/>
<path d="M4510 4263 c-13 -3 -63 -22 -110 -43 -239 -106 -305 -139 -308 -154
-4 -19 60 -50 124 -61 45 -7 409 30 452 46 41 16 72 49 72 78 0 38 -32 93 -70
119 -32 22 -92 27 -160 15z"/>
<path d="M3125 3679 c-123 -35 -248 -102 -318 -172 -131 -129 -138 -225 -23
-301 74 -48 152 -46 211 5 49 43 60 92 44 191 -12 74 -12 80 8 106 11 15 52
43 91 63 89 45 102 56 102 85 0 19 -27 47 -42 43 -2 0 -34 -9 -73 -20z"/>
</g>
</svg>
